<?xml version="1.0" encoding="utf-8"?>
<!-- Generator: Adobe Illustrator 16.0.0, SVG Export Plug-In . SVG Version: 6.00 Build 0)  -->
<!DOCTYPE svg PUBLIC "-//W3C//DTD SVG 1.1//EN" "http://www.w3.org/Graphics/SVG/1.1/DTD/svg11.dtd">
<svg version="1.1" id="Layer_1" xmlns="http://www.w3.org/2000/svg" xmlns:xlink="http://www.w3.org/1999/xlink" x="0px" y="0px"
	 width="128px" height="128px" viewBox="0 0 128 128" enable-background="new 0 0 128 128" xml:space="preserve">
<g>
	<g>
		<g>
			<g>
				<path fill="#282D33" d="M64,97.02c-19.879,0-36.051-16.298-36.051-36.332c0-20.032,16.172-36.329,36.051-36.329
					c19.878,0,36.051,16.297,36.051,36.329C100.051,80.722,83.878,97.02,64,97.02z M64,28.356
					c-17.674,0-32.053,14.504-32.053,32.331c0,17.829,14.379,32.334,32.053,32.334s32.053-14.505,32.053-32.334
					C96.053,42.86,81.674,28.356,64,28.356z"/>
			</g>
			<g>
				<path fill="#282D33" d="M64,97.02c-12.168,0-21.7-15.959-21.7-36.332c0-20.371,9.532-36.329,21.7-36.329
					c12.162,0,21.689,15.958,21.689,36.329C85.689,81.061,76.162,97.02,64,97.02z M64,28.356c-9.595,0-17.702,14.807-17.702,32.331
					c0,17.526,8.107,32.334,17.702,32.334c9.59,0,17.691-14.808,17.691-32.334C81.691,43.163,73.59,28.356,64,28.356z"/>
			</g>
			<g>
				<path fill="#282D33" d="M64,97.02h-1.999V24.358H64c19.878,0,36.051,16.297,36.051,36.329C100.051,80.722,83.878,97.02,64,97.02
					z M65.999,28.419v64.54c16.747-1.044,30.054-15.119,30.054-32.271C96.053,43.537,82.746,29.463,65.999,28.419z"/>
			</g>
			<g>
				<path fill="#282D33" d="M97.221,74.789h-66.45l-0.485-1.302c-1.55-4.159-2.336-8.466-2.336-12.8c0-4.34,0.787-8.646,2.34-12.801
					l0.486-1.3h66.446l0.485,1.298c1.558,4.157,2.347,8.465,2.347,12.803s-0.789,8.646-2.347,12.803L97.221,74.789z M33.576,70.791
					h60.843c1.086-3.303,1.636-6.694,1.636-10.104s-0.55-6.801-1.636-10.103H33.578c-1.083,3.3-1.631,6.692-1.631,10.103
					C31.947,64.095,32.494,67.486,33.576,70.791z"/>
			</g>
		</g>
	</g>
	<g>
		<g>
			<g>
				<path fill="#282D33" d="M33.652,24.782C33.652,24.782,33.652,24.782,33.652,24.782c-0.676,0-1.359-0.05-2.028-0.149
					l-1.432-0.212l-0.246-1.427c-0.755-4.395,0.63-8.918,3.707-12.101c2.62-2.713,6.139-4.206,9.907-4.206
					c0.675,0,1.356,0.05,2.024,0.148l1.433,0.212l0.246,1.428c0.755,4.396-0.63,8.92-3.705,12.101
					C40.938,23.288,37.42,24.782,33.652,24.782z M43.466,10.687c-2.639,0.024-5.1,1.082-6.938,2.985
					c-1.838,1.901-2.829,4.478-2.785,7.111c2.64-0.023,5.102-1.081,6.94-2.984C42.52,15.898,43.51,13.321,43.466,10.687z"/>
			</g>
			<g>
				<path fill="#282D33" d="M21.058,39.389l-1.254-0.746c-3.721-2.214-6.181-6.114-6.58-10.434
					c-0.398-4.316,1.303-8.605,4.551-11.475l1.093-0.965l1.253,0.746c3.72,2.216,6.179,6.115,6.58,10.432
					c0.398,4.314-1.303,8.604-4.55,11.476L21.058,39.389z M19.342,20.854c-1.583,1.941-2.37,4.458-2.137,6.987
					c0.233,2.527,1.466,4.853,3.376,6.463c1.585-1.943,2.372-4.459,2.138-6.988C22.485,24.79,21.252,22.466,19.342,20.854z"/>
			</g>
			<g>
				<path fill="#282D33" d="M15.504,60.633l-1.445-0.143c-4.307-0.422-8.176-2.913-10.35-6.663
					c-2.17-3.741-2.427-8.352-0.687-12.331l0.582-1.33l1.445,0.143c4.306,0.421,8.175,2.911,10.35,6.658
					c2.17,3.742,2.427,8.354,0.687,12.335L15.504,60.633z M6.18,44.563c-0.627,2.44-0.287,5.062,0.987,7.259
					c1.269,2.188,3.356,3.767,5.76,4.413c0.627-2.442,0.288-5.065-0.986-7.262C10.672,46.786,8.583,45.209,6.18,44.563z"/>
			</g>
			<g>
				<path fill="#282D33" d="M13.489,83.521c-2.746,0-5.394-0.834-7.657-2.412c-3.538-2.469-5.707-6.54-5.801-10.891L0,68.775
					l1.36-0.484c1.458-0.519,2.981-0.781,4.526-0.781c2.747,0,5.395,0.834,7.657,2.411c3.541,2.474,5.708,6.546,5.799,10.894
					l0.03,1.441l-1.358,0.483C16.556,83.258,15.034,83.521,13.489,83.521z M4.184,71.661c0.453,2.484,1.86,4.721,3.936,6.168
					c2.063,1.439,4.632,1.988,7.072,1.54c-0.451-2.481-1.859-4.718-3.937-6.17C9.196,71.763,6.628,71.215,4.184,71.661z"/>
			</g>
			<g>
				<path fill="#282D33" d="M21.48,105.126C21.479,105.126,21.48,105.126,21.48,105.126c-0.76,0-1.528-0.066-2.283-0.196
					c-4.247-0.731-7.923-3.501-9.834-7.407l-0.631-1.291l1.022-1.009c2.55-2.518,5.906-3.904,9.45-3.904
					c0.757,0,1.521,0.065,2.271,0.193c4.248,0.732,7.923,3.502,9.834,7.409l0.631,1.29l-1.021,1.01
					C28.375,103.738,25.022,105.126,21.48,105.126z M13.733,97.081c1.448,2.056,3.658,3.48,6.143,3.909
					c2.499,0.427,5.043-0.171,7.066-1.626c-1.448-2.058-3.658-3.483-6.143-3.912C18.31,95.028,15.759,95.627,13.733,97.081z"/>
			</g>
			<g>
				<path fill="#282D33" d="M37.736,121.313L37.736,121.313c-3.056,0-6.062-1.071-8.464-3.015l-1.118-0.904l0.502-1.348
					c1.521-4.079,4.907-7.198,9.06-8.345c4.138-1.142,8.687-0.179,12.03,2.528l1.116,0.905l-0.5,1.346
					c-1.517,4.078-4.905,7.198-9.062,8.346C40.135,121.148,38.935,121.313,37.736,121.313z M33.049,116.054
					c1.428,0.819,3.049,1.261,4.687,1.261l0,0c0.839,0,1.68-0.115,2.5-0.342c2.434-0.672,4.494-2.31,5.734-4.5
					c-2.161-1.239-4.77-1.586-7.189-0.918C36.35,112.226,34.291,113.863,33.049,116.054z"/>
			</g>
			<g>
				<path fill="#282D33" d="M56.772,112.769c-26.249-4.616-44.655-28.328-42.814-55.156c0.955-13.939,7.24-26.671,17.697-35.85
					l2.637,3.004c-9.658,8.479-15.463,20.24-16.346,33.119c-1.7,24.783,15.29,46.685,39.518,50.945L56.772,112.769z"/>
			</g>
		</g>
		<g>
			<g>
				<path fill="#282D33" d="M94.349,24.783c-3.766,0-7.283-1.494-9.906-4.206c-3.076-3.183-4.461-7.706-3.705-12.101l0.245-1.428
					l1.433-0.212c0.668-0.099,1.349-0.148,2.024-0.148c3.768,0,7.286,1.493,9.908,4.205c3.075,3.187,4.461,7.71,3.704,12.103
					l-0.245,1.427l-1.433,0.212C95.705,24.733,95.024,24.783,94.349,24.783z M84.533,10.688c-0.044,2.634,0.946,5.21,2.784,7.11
					c1.841,1.904,4.301,2.963,6.938,2.987c0.045-2.634-0.946-5.211-2.784-7.114C89.634,11.77,87.173,10.712,84.533,10.688z"/>
			</g>
			<g>
				<path fill="#282D33" d="M106.946,39.391l-1.094-0.966c-3.247-2.87-4.949-7.16-4.554-11.476
					c0.398-4.317,2.859-8.217,6.581-10.434l1.254-0.745l1.093,0.965c3.246,2.867,4.948,7.156,4.551,11.474
					c-0.398,4.317-2.857,8.219-6.578,10.436L106.946,39.391z M108.658,20.854c-1.911,1.611-3.146,3.936-3.378,6.461
					c-0.231,2.529,0.556,5.047,2.14,6.99c1.911-1.612,3.144-3.937,3.377-6.463C111.029,25.312,110.242,22.795,108.658,20.854z"/>
			</g>
			<g>
				<path fill="#282D33" d="M112.495,60.636l-0.582-1.332c-1.739-3.982-1.481-8.595,0.688-12.336
					c2.176-3.748,6.045-6.238,10.351-6.659l1.446-0.143l0.581,1.332c1.737,3.983,1.479,8.593-0.689,12.33
					c-2.172,3.748-6.041,6.24-10.349,6.664L112.495,60.636z M121.818,44.564c-2.401,0.645-4.488,2.223-5.759,4.409
					c-1.274,2.198-1.614,4.823-0.985,7.268c2.419-0.639,4.468-2.194,5.758-4.419C122.104,49.628,122.445,47.007,121.818,44.564z"/>
			</g>
			<g>
				<path fill="#282D33" d="M114.512,83.521c-1.545,0-3.068-0.264-4.527-0.781l-1.359-0.484l0.031-1.443
					c0.095-4.35,2.263-8.42,5.799-10.889c2.264-1.578,4.912-2.412,7.659-2.412c1.544,0,3.067,0.263,4.525,0.781l1.36,0.484
					l-0.031,1.443c-0.095,4.349-2.263,8.419-5.798,10.888C119.905,82.688,117.258,83.521,114.512,83.521z M112.809,79.369
					c2.445,0.447,5.012-0.101,7.075-1.54c2.073-1.447,3.48-3.683,3.933-6.166c-2.447-0.447-5.013,0.102-7.074,1.539
					C114.668,74.651,113.262,76.887,112.809,79.369z"/>
			</g>
			<g>
				<path fill="#282D33" d="M106.52,105.126c-3.541,0-6.895-1.388-9.439-3.905l-1.021-1.01l0.631-1.289
					c1.909-3.906,5.585-6.676,9.833-7.407c4.277-0.738,8.631,0.653,11.723,3.71l1.022,1.01l-0.631,1.29
					c-1.911,3.906-5.587,6.675-9.835,7.405C108.048,105.061,107.28,105.126,106.52,105.126z M101.058,99.364
					c2.025,1.455,4.566,2.058,7.065,1.626c2.486-0.428,4.696-1.853,6.145-3.908c-2.025-1.455-4.573-2.056-7.066-1.628
					C104.715,95.883,102.505,97.308,101.058,99.364z"/>
			</g>
			<g>
				<path fill="#282D33" d="M90.265,121.313c-1.199,0-2.399-0.164-3.565-0.486c-4.158-1.148-7.546-4.268-9.062-8.347l-0.5-1.346
					l1.116-0.903c3.342-2.709,7.89-3.673,12.032-2.529c4.154,1.148,7.539,4.269,9.056,8.348l0.501,1.348l-1.117,0.903
					C96.326,120.242,93.32,121.313,90.265,121.313z M82.03,112.474c1.238,2.189,3.298,3.826,5.732,4.499
					c2.418,0.668,5.028,0.321,7.188-0.917c-1.24-2.191-3.299-3.829-5.73-4.501C86.802,110.888,84.19,111.234,82.03,112.474z"/>
			</g>
			<g>
				<path fill="#282D33" d="M71.228,112.77l-0.692-3.938c24.228-4.262,41.217-26.163,39.52-50.944
					c-0.884-12.879-6.689-24.641-16.346-33.12l2.638-3.004c10.455,9.18,16.74,21.911,17.696,35.851
					C115.881,84.441,97.475,108.152,71.228,112.77z"/>
			</g>
		</g>
	</g>
</g>
</svg>
